<mxfile host="Electron" agent="Mozilla/5.0 (Windows NT 10.0; Win64; x64) AppleWebKit/537.36 (KHTML, like Gecko) draw.io/24.7.17 Chrome/128.0.6613.36 Electron/32.0.1 Safari/537.36" version="24.7.17">
  <diagram id="C5RBs43oDa-KdzZeNtuy" name="Page-1">
    <mxGraphModel dx="3407" dy="1242" grid="1" gridSize="10" guides="1" tooltips="1" connect="1" arrows="1" fold="1" page="1" pageScale="1" pageWidth="827" pageHeight="1169" math="0" shadow="0">
      <root>
        <mxCell id="WIyWlLk6GJQsqaUBKTNV-0" />
        <mxCell id="WIyWlLk6GJQsqaUBKTNV-1" parent="WIyWlLk6GJQsqaUBKTNV-0" />
        <mxCell id="Uue40vRSyYh73GjofIKc-29" value="" style="html=1;dropTarget=0;whiteSpace=wrap;" vertex="1" parent="WIyWlLk6GJQsqaUBKTNV-1">
          <mxGeometry x="-40" y="210" width="950" height="700" as="geometry" />
        </mxCell>
        <mxCell id="Uue40vRSyYh73GjofIKc-30" value="" style="shape=module;jettyWidth=8;jettyHeight=4;" vertex="1" parent="Uue40vRSyYh73GjofIKc-29">
          <mxGeometry x="1" width="20" height="20" relative="1" as="geometry">
            <mxPoint x="-27" y="7" as="offset" />
          </mxGeometry>
        </mxCell>
        <mxCell id="7lpZ8PjZCRHS7VuvmLVK-45" value="&lt;font style=&quot;font-size: 24px;&quot;&gt;Шахмуханбетов Ханкелді&lt;/font&gt;&lt;div&gt;&lt;font style=&quot;font-size: 24px;&quot;&gt;Практика 11&lt;/font&gt;&lt;/div&gt;&lt;div&gt;&lt;font style=&quot;font-size: 24px;&quot;&gt;Диаграмма &quot;Библиотека&quot;&lt;/font&gt;&lt;/div&gt;" style="text;html=1;align=center;verticalAlign=middle;whiteSpace=wrap;rounded=0;" parent="WIyWlLk6GJQsqaUBKTNV-1" vertex="1">
          <mxGeometry y="100" width="320" height="110" as="geometry" />
        </mxCell>
        <mxCell id="Uue40vRSyYh73GjofIKc-0" value="Library" style="html=1;dropTarget=0;whiteSpace=wrap;" vertex="1" parent="WIyWlLk6GJQsqaUBKTNV-1">
          <mxGeometry x="380" y="260" width="180" height="90" as="geometry" />
        </mxCell>
        <mxCell id="Uue40vRSyYh73GjofIKc-1" value="" style="shape=module;jettyWidth=8;jettyHeight=4;" vertex="1" parent="Uue40vRSyYh73GjofIKc-0">
          <mxGeometry x="1" width="20" height="20" relative="1" as="geometry">
            <mxPoint x="-27" y="7" as="offset" />
          </mxGeometry>
        </mxCell>
        <mxCell id="Uue40vRSyYh73GjofIKc-2" value="Loan" style="html=1;dropTarget=0;whiteSpace=wrap;" vertex="1" parent="WIyWlLk6GJQsqaUBKTNV-1">
          <mxGeometry x="700" y="449" width="180" height="90" as="geometry" />
        </mxCell>
        <mxCell id="Uue40vRSyYh73GjofIKc-3" value="" style="shape=module;jettyWidth=8;jettyHeight=4;" vertex="1" parent="Uue40vRSyYh73GjofIKc-2">
          <mxGeometry x="1" width="20" height="20" relative="1" as="geometry">
            <mxPoint x="-27" y="7" as="offset" />
          </mxGeometry>
        </mxCell>
        <mxCell id="Uue40vRSyYh73GjofIKc-4" value="User" style="html=1;dropTarget=0;whiteSpace=wrap;" vertex="1" parent="WIyWlLk6GJQsqaUBKTNV-1">
          <mxGeometry x="90" y="280" width="180" height="90" as="geometry" />
        </mxCell>
        <mxCell id="Uue40vRSyYh73GjofIKc-5" value="" style="shape=module;jettyWidth=8;jettyHeight=4;" vertex="1" parent="Uue40vRSyYh73GjofIKc-4">
          <mxGeometry x="1" width="20" height="20" relative="1" as="geometry">
            <mxPoint x="-27" y="7" as="offset" />
          </mxGeometry>
        </mxCell>
        <mxCell id="Uue40vRSyYh73GjofIKc-6" value="Searchablr" style="html=1;dropTarget=0;whiteSpace=wrap;" vertex="1" parent="WIyWlLk6GJQsqaUBKTNV-1">
          <mxGeometry x="690" y="280" width="180" height="90" as="geometry" />
        </mxCell>
        <mxCell id="Uue40vRSyYh73GjofIKc-7" value="" style="shape=module;jettyWidth=8;jettyHeight=4;" vertex="1" parent="Uue40vRSyYh73GjofIKc-6">
          <mxGeometry x="1" width="20" height="20" relative="1" as="geometry">
            <mxPoint x="-27" y="7" as="offset" />
          </mxGeometry>
        </mxCell>
        <mxCell id="Uue40vRSyYh73GjofIKc-8" value="Reader" style="html=1;dropTarget=0;whiteSpace=wrap;" vertex="1" parent="WIyWlLk6GJQsqaUBKTNV-1">
          <mxGeometry x="234" y="449" width="180" height="90" as="geometry" />
        </mxCell>
        <mxCell id="Uue40vRSyYh73GjofIKc-9" value="" style="shape=module;jettyWidth=8;jettyHeight=4;" vertex="1" parent="Uue40vRSyYh73GjofIKc-8">
          <mxGeometry x="1" width="20" height="20" relative="1" as="geometry">
            <mxPoint x="-27" y="7" as="offset" />
          </mxGeometry>
        </mxCell>
        <mxCell id="Uue40vRSyYh73GjofIKc-10" value="Book" style="html=1;dropTarget=0;whiteSpace=wrap;" vertex="1" parent="WIyWlLk6GJQsqaUBKTNV-1">
          <mxGeometry x="414" y="600" width="180" height="90" as="geometry" />
        </mxCell>
        <mxCell id="Uue40vRSyYh73GjofIKc-11" value="" style="shape=module;jettyWidth=8;jettyHeight=4;" vertex="1" parent="Uue40vRSyYh73GjofIKc-10">
          <mxGeometry x="1" width="20" height="20" relative="1" as="geometry">
            <mxPoint x="-27" y="7" as="offset" />
          </mxGeometry>
        </mxCell>
        <mxCell id="Uue40vRSyYh73GjofIKc-12" value="Librarian" style="html=1;dropTarget=0;whiteSpace=wrap;" vertex="1" parent="WIyWlLk6GJQsqaUBKTNV-1">
          <mxGeometry x="10" y="449" width="180" height="90" as="geometry" />
        </mxCell>
        <mxCell id="Uue40vRSyYh73GjofIKc-13" value="" style="shape=module;jettyWidth=8;jettyHeight=4;" vertex="1" parent="Uue40vRSyYh73GjofIKc-12">
          <mxGeometry x="1" width="20" height="20" relative="1" as="geometry">
            <mxPoint x="-27" y="7" as="offset" />
          </mxGeometry>
        </mxCell>
        <mxCell id="Uue40vRSyYh73GjofIKc-14" value="Author" style="html=1;dropTarget=0;whiteSpace=wrap;" vertex="1" parent="WIyWlLk6GJQsqaUBKTNV-1">
          <mxGeometry x="420" y="780" width="180" height="90" as="geometry" />
        </mxCell>
        <mxCell id="Uue40vRSyYh73GjofIKc-15" value="" style="shape=module;jettyWidth=8;jettyHeight=4;" vertex="1" parent="Uue40vRSyYh73GjofIKc-14">
          <mxGeometry x="1" width="20" height="20" relative="1" as="geometry">
            <mxPoint x="-27" y="7" as="offset" />
          </mxGeometry>
        </mxCell>
        <mxCell id="Uue40vRSyYh73GjofIKc-16" value="" style="rounded=0;orthogonalLoop=1;jettySize=auto;html=1;endArrow=halfCircle;endFill=0;endSize=6;strokeWidth=1;sketch=0;" edge="1" target="Uue40vRSyYh73GjofIKc-18" parent="WIyWlLk6GJQsqaUBKTNV-1" source="Uue40vRSyYh73GjofIKc-0">
          <mxGeometry relative="1" as="geometry">
            <mxPoint x="580" y="365" as="sourcePoint" />
          </mxGeometry>
        </mxCell>
        <mxCell id="Uue40vRSyYh73GjofIKc-17" value="" style="rounded=0;orthogonalLoop=1;jettySize=auto;html=1;endArrow=oval;endFill=0;sketch=0;sourcePerimeterSpacing=0;targetPerimeterSpacing=0;endSize=10;" edge="1" target="Uue40vRSyYh73GjofIKc-18" parent="WIyWlLk6GJQsqaUBKTNV-1" source="Uue40vRSyYh73GjofIKc-6">
          <mxGeometry relative="1" as="geometry">
            <mxPoint x="540" y="365" as="sourcePoint" />
          </mxGeometry>
        </mxCell>
        <mxCell id="Uue40vRSyYh73GjofIKc-18" value="" style="ellipse;whiteSpace=wrap;html=1;align=center;aspect=fixed;fillColor=none;strokeColor=none;resizable=0;perimeter=centerPerimeter;rotatable=0;allowArrows=0;points=[];outlineConnect=1;" vertex="1" parent="WIyWlLk6GJQsqaUBKTNV-1">
          <mxGeometry x="640" y="310" width="10" height="10" as="geometry" />
        </mxCell>
        <mxCell id="Uue40vRSyYh73GjofIKc-19" value="Use" style="endArrow=open;endSize=12;dashed=1;html=1;rounded=0;" edge="1" parent="WIyWlLk6GJQsqaUBKTNV-1" source="Uue40vRSyYh73GjofIKc-0" target="Uue40vRSyYh73GjofIKc-2">
          <mxGeometry width="160" relative="1" as="geometry">
            <mxPoint x="220" y="390" as="sourcePoint" />
            <mxPoint x="380" y="390" as="targetPoint" />
          </mxGeometry>
        </mxCell>
        <mxCell id="Uue40vRSyYh73GjofIKc-20" value="Use" style="endArrow=open;endSize=12;dashed=1;html=1;rounded=0;" edge="1" parent="WIyWlLk6GJQsqaUBKTNV-1" source="Uue40vRSyYh73GjofIKc-0" target="Uue40vRSyYh73GjofIKc-4">
          <mxGeometry x="0.0352" y="8" width="160" relative="1" as="geometry">
            <mxPoint x="430" y="370" as="sourcePoint" />
            <mxPoint x="320" y="440" as="targetPoint" />
            <mxPoint as="offset" />
          </mxGeometry>
        </mxCell>
        <mxCell id="Uue40vRSyYh73GjofIKc-21" value="Use" style="endArrow=open;endSize=12;dashed=1;html=1;rounded=0;" edge="1" parent="WIyWlLk6GJQsqaUBKTNV-1" target="Uue40vRSyYh73GjofIKc-10">
          <mxGeometry x="0.024" y="8" width="160" relative="1" as="geometry">
            <mxPoint x="480" y="360" as="sourcePoint" />
            <mxPoint x="504" y="460" as="targetPoint" />
            <mxPoint as="offset" />
          </mxGeometry>
        </mxCell>
        <mxCell id="Uue40vRSyYh73GjofIKc-22" value="Use" style="endArrow=open;endSize=12;dashed=1;html=1;rounded=0;" edge="1" parent="WIyWlLk6GJQsqaUBKTNV-1" source="Uue40vRSyYh73GjofIKc-10" target="Uue40vRSyYh73GjofIKc-14">
          <mxGeometry x="0.0352" y="8" width="160" relative="1" as="geometry">
            <mxPoint x="693" y="550" as="sourcePoint" />
            <mxPoint x="687" y="650" as="targetPoint" />
            <mxPoint as="offset" />
          </mxGeometry>
        </mxCell>
        <mxCell id="Uue40vRSyYh73GjofIKc-23" value="Use" style="endArrow=open;endSize=12;dashed=1;html=1;rounded=0;" edge="1" parent="WIyWlLk6GJQsqaUBKTNV-1" source="Uue40vRSyYh73GjofIKc-10" target="Uue40vRSyYh73GjofIKc-2">
          <mxGeometry x="0.0352" y="8" width="160" relative="1" as="geometry">
            <mxPoint x="360" y="690" as="sourcePoint" />
            <mxPoint x="494" y="770" as="targetPoint" />
            <mxPoint as="offset" />
          </mxGeometry>
        </mxCell>
        <mxCell id="Uue40vRSyYh73GjofIKc-25" value="Extends" style="endArrow=block;endSize=16;endFill=0;html=1;rounded=0;" edge="1" parent="WIyWlLk6GJQsqaUBKTNV-1" source="Uue40vRSyYh73GjofIKc-12" target="Uue40vRSyYh73GjofIKc-4">
          <mxGeometry x="0.0083" width="160" relative="1" as="geometry">
            <mxPoint x="630" y="580" as="sourcePoint" />
            <mxPoint x="790" y="580" as="targetPoint" />
            <mxPoint as="offset" />
          </mxGeometry>
        </mxCell>
        <mxCell id="Uue40vRSyYh73GjofIKc-26" value="Extends" style="endArrow=block;endSize=16;endFill=0;html=1;rounded=0;" edge="1" parent="WIyWlLk6GJQsqaUBKTNV-1" source="Uue40vRSyYh73GjofIKc-8" target="Uue40vRSyYh73GjofIKc-4">
          <mxGeometry width="160" relative="1" as="geometry">
            <mxPoint x="640" y="617" as="sourcePoint" />
            <mxPoint x="160" y="620" as="targetPoint" />
          </mxGeometry>
        </mxCell>
        <mxCell id="Uue40vRSyYh73GjofIKc-27" value="Use" style="endArrow=open;endSize=12;dashed=1;html=1;rounded=0;" edge="1" parent="WIyWlLk6GJQsqaUBKTNV-1" source="Uue40vRSyYh73GjofIKc-2" target="Uue40vRSyYh73GjofIKc-10">
          <mxGeometry x="0.0352" y="8" width="160" relative="1" as="geometry">
            <mxPoint x="600" y="627" as="sourcePoint" />
            <mxPoint x="720" y="610" as="targetPoint" />
            <mxPoint as="offset" />
          </mxGeometry>
        </mxCell>
        <mxCell id="Uue40vRSyYh73GjofIKc-28" value="Use" style="endArrow=open;endSize=12;dashed=1;html=1;rounded=0;" edge="1" parent="WIyWlLk6GJQsqaUBKTNV-1" source="Uue40vRSyYh73GjofIKc-2" target="Uue40vRSyYh73GjofIKc-8">
          <mxGeometry x="0.024" y="8" width="160" relative="1" as="geometry">
            <mxPoint x="490" y="370" as="sourcePoint" />
            <mxPoint x="497" y="500" as="targetPoint" />
            <mxPoint as="offset" />
          </mxGeometry>
        </mxCell>
        <mxCell id="Uue40vRSyYh73GjofIKc-31" value="&lt;font style=&quot;font-size: 18px;&quot;&gt;Library System&lt;/font&gt;" style="text;html=1;align=center;verticalAlign=middle;whiteSpace=wrap;rounded=0;" vertex="1" parent="WIyWlLk6GJQsqaUBKTNV-1">
          <mxGeometry x="715" y="210" width="150" height="30" as="geometry" />
        </mxCell>
      </root>
    </mxGraphModel>
  </diagram>
</mxfile>
